<svg xmlns:xlink="http://www.w3.org/1999/xlink" width="98" height="40" viewBox="0 0 98 40" fill="#087AE4" xmlns="http://www.w3.org/2000/svg"><path d="M17.8233 30.0044C17.8233 30.8328 17.7962 31.5623 17.7421 32.1926C17.688 32.823 17.6128 33.3783 17.5166 33.8586C17.228 35.1793 16.6627 36.3139 15.8208 37.2624C14.2334 39.0874 12.0506 39.9999 9.27242 39.9999C6.92726 39.9999 4.99701 39.3696 3.48167 38.1089C1.9182 36.8122 1.01623 35.0172 0.775743 32.7239H4.8527C5.00906 33.5884 5.26761 34.2548 5.62838 34.723C6.47025 35.8156 7.69698 36.3619 9.3085 36.3619C12.2791 36.3619 13.7644 34.5429 13.7644 30.9049V28.4555C12.1528 30.1005 10.2947 30.9229 8.19007 30.9229C5.79678 30.9229 3.83648 30.0584 2.30909 28.3294C0.769719 26.5765 0 24.3853 0 21.7558C0 19.1984 0.71557 17.0252 2.14671 15.2362C3.68615 13.3391 5.7186 12.3906 8.24415 12.3906C10.4571 12.3906 12.2971 13.2131 13.7644 14.858V12.8769H17.8233V30.0044ZM13.9267 21.6838C13.9267 19.9788 13.4697 18.616 12.5556 17.5955C11.6296 16.5509 10.445 16.0286 9.00182 16.0286C7.46245 16.0286 6.24777 16.5989 5.35784 17.7396C4.55205 18.7601 4.14911 20.0809 4.14911 21.7018C4.14911 23.2987 4.55205 24.6074 5.35784 25.628C6.23572 26.7446 7.4504 27.3029 9.00182 27.3029C10.5532 27.3029 11.78 26.7386 12.6819 25.6099C13.5118 24.5894 13.9267 23.2807 13.9267 21.6838Z" fill="#087AE4"></path><path d="M24.2733 0H20.2144V30.4189H24.2733V0Z" fill="#087AE4"></path><path d="M40.1256 12.8769H44.2027V30.4186H40.1256V28.5816C38.4539 30.1425 36.656 30.9229 34.7318 30.9229C32.3024 30.9229 30.294 30.0464 28.7065 28.2934C27.131 26.5045 26.3433 24.2712 26.3433 21.5937C26.3433 18.9643 27.131 16.7731 28.7065 15.0201C30.2819 13.2671 32.2543 12.3906 34.6235 12.3906C36.668 12.3906 38.5021 13.2311 40.1256 14.912V12.8769ZM30.4924 21.5937C30.4924 23.2746 30.9434 24.6434 31.8454 25.7C32.7714 26.7686 33.938 27.3029 35.3451 27.3029C36.8484 27.3029 38.0631 26.7866 38.9891 25.754C39.9152 24.6855 40.3782 23.3287 40.3782 21.6838C40.3782 20.0388 39.9152 18.6821 38.9891 17.6135C38.0631 16.5689 36.8604 16.0466 35.3812 16.0466C33.9861 16.0466 32.8195 16.575 31.8815 17.6316C30.9554 18.7001 30.4924 20.0208 30.4924 21.5937Z" fill="#087AE4"></path><path d="M47.2246 12.8769H51.3016V14.4978C52.7207 13.093 54.3203 12.3906 56.1002 12.3906C58.1447 12.3906 59.7382 13.033 60.8807 14.3177C61.8669 15.4103 62.36 17.1933 62.36 19.6667V30.4186H58.283V20.6212C58.283 18.8923 58.0425 17.6975 57.5614 17.0372C57.0924 16.3648 56.2385 16.0286 54.9998 16.0286C53.6528 16.0286 52.6967 16.4729 52.1315 17.3614C51.5782 18.2378 51.3016 19.7687 51.3016 21.9539V30.4186H47.2246V12.8769Z" fill="#087AE4"></path><path d="M78.9864 13.6333V19.0183C78.0604 17.8897 77.2306 17.1153 76.4969 16.695C75.7753 16.2628 74.9274 16.0466 73.9533 16.0466C72.4259 16.0466 71.1572 16.5809 70.1469 17.6496C69.1367 18.7181 68.6316 20.0569 68.6316 21.6658C68.6316 23.3107 69.1187 24.6614 70.0928 25.718C71.079 26.7746 72.3358 27.3029 73.8631 27.3029C74.8373 27.3029 75.6972 27.0928 76.4428 26.6725C77.1644 26.2643 78.0123 25.4719 78.9864 24.2952V29.6442C77.3388 30.4967 75.6911 30.9229 74.0435 30.9229C71.3256 30.9229 69.0525 30.0464 67.2245 28.2934C65.3964 26.5284 64.4824 24.3372 64.4824 21.7198C64.4824 19.1023 65.4085 16.8931 67.2606 15.0921C69.1126 13.2911 71.3857 12.3906 74.0796 12.3906C75.8114 12.3906 77.447 12.8048 78.9864 13.6333Z" fill="#087AE4"></path><path d="M97.7984 22.6023H85.2066C85.3149 24.0431 85.7839 25.1897 86.6137 26.0422C87.4436 26.8827 88.5079 27.3029 89.8068 27.3029C90.817 27.3029 91.6528 27.0628 92.3143 26.5825C92.9638 26.1022 93.7034 25.2137 94.5332 23.917L97.9608 25.8261C97.4316 26.7266 96.8723 27.498 96.2831 28.1404C95.6937 28.7827 95.0624 29.311 94.3889 29.7253C93.7154 30.1395 92.9878 30.4427 92.2061 30.6347C91.4243 30.8268 90.5765 30.9229 89.6625 30.9229C87.0407 30.9229 84.9361 30.0825 83.3485 28.4015C81.761 26.7085 80.9673 24.4633 80.9673 21.6658C80.9673 18.8923 81.737 16.647 83.2764 14.93C84.8278 13.2371 86.8843 12.3906 89.446 12.3906C92.0317 12.3906 94.0762 13.2131 95.5795 14.858C97.0708 16.4909 97.8164 18.7542 97.8164 21.6478L97.7984 22.6023ZM93.6312 19.2885C93.066 17.1273 91.701 16.0466 89.5362 16.0466C89.0431 16.0466 88.5801 16.1217 88.1471 16.2718C87.7142 16.4218 87.3203 16.6379 86.9655 16.9201C86.6107 17.2023 86.3071 17.5415 86.0545 17.9377C85.802 18.334 85.6096 18.7842 85.4772 19.2885H93.6312Z" fill="#087AE4"></path></svg>